<svg width="20" height="26" viewBox="0 0 20 26" fill="none" xmlns="http://www.w3.org/2000/svg">
<path d="M3.72922 19.2758C3.18979 18.308 2.57384 17.3747 2.28799 16.2929C2.18671 15.9087 2.16271 15.4016 2.31426 15.0264C2.39078 14.8374 2.38403 14.8959 2.51757 14.9177C2.80191 14.9664 3.0765 15.2148 3.29857 15.3843C3.82824 15.7864 4.37443 16.1788 5.03239 16.3266C5.80514 16.4999 6.50436 16.0085 6.83297 15.3431C7.38965 14.2184 6.911 12.7397 6.47735 11.6594C6.09848 10.7156 5.5343 9.71023 5.64609 8.65688C5.66485 8.48283 5.71811 8.28851 5.78788 8.19773C6.06622 7.83762 5.85465 8.12645 5.87341 8.11895C6.0002 8.1287 6.10448 8.20298 6.21702 8.28551C6.4511 8.45806 6.67167 8.64638 6.89299 8.83319C7.88856 9.66896 9.31328 10.0929 10.2803 8.94798C11.1649 7.90064 10.8588 6.35438 10.3869 5.202C10.1543 4.63407 9.87371 4.0909 9.68015 3.50721C9.60362 3.27539 9.57286 3.09233 9.56836 2.84099C9.57136 2.99554 9.62163 2.63542 9.62013 2.64592C9.58787 2.75096 9.59762 2.73971 9.65089 2.61442C9.85345 2.36309 9.5301 2.67144 9.77468 2.50939C9.9855 2.46812 10.0928 2.51238 10.3561 2.63167C11.0929 2.96628 11.6443 3.4982 12.4508 3.70002C13.6812 4.00611 14.1869 2.20853 13.1313 1.65185C11.8791 0.989388 10.711 -0.0767118 9.18798 0.335172C7.88631 0.687036 7.2201 1.99022 7.32513 3.27238C7.42567 4.50728 8.19542 5.55538 8.52402 6.72501C8.56304 6.8608 8.59604 7.1744 8.59154 7.24192C8.59079 7.25393 8.50151 7.62755 8.57654 7.41973C8.47225 7.70557 8.70258 7.30944 8.52027 7.52551C8.56153 7.47749 8.81436 7.38672 8.59154 7.46324C8.68007 7.43323 8.85113 7.46174 8.62831 7.41072C8.49401 7.30869 8.37397 7.21116 8.25243 7.11588C7.25461 6.33338 6.11949 5.68441 4.88834 6.38739C3.70521 7.06411 3.52815 8.5436 3.75247 9.76424C3.96854 10.9399 4.57024 11.9662 4.94836 13.0886C5.10141 13.541 5.20945 14.0459 5.11867 14.52C5.10441 14.5936 4.97012 14.6836 5.17719 14.505C5.26572 14.4285 5.32723 14.4825 5.19369 14.427C4.90935 14.3092 4.63551 14.1036 4.38493 13.9288C3.62268 13.3939 2.67437 12.8755 1.72832 13.2589C0.795765 13.6363 0.477658 14.6708 0.463403 15.5951C0.436394 17.3057 1.48148 18.8039 2.45155 20.1229C3.04424 20.9286 4.20712 20.1326 3.72922 19.2758Z" fill="#E5AD65"/>
<path d="M10.3021 24.2944C9.78589 23.0527 8.97713 21.9326 8.83533 20.5582C8.82033 20.4141 8.83233 20.3203 8.85709 20.1793C8.87285 20.0878 8.95912 20.0878 8.80157 20.162C8.8976 20.1163 9.0439 20.177 9.14669 20.2168C9.57808 20.3886 9.96445 20.6887 10.3741 20.9078C11.4949 21.5087 12.9497 21.4074 13.4868 20.0825C14.0465 18.7028 13.3315 17.1566 12.9114 15.8466C12.7036 15.1939 12.4613 14.5622 12.2992 13.896C12.2444 13.6687 12.2399 13.4429 12.2865 13.217C12.2767 13.265 12.2302 13.3138 12.345 13.187C12.3225 13.2245 12.2895 13.2463 12.2459 13.2523C12.3592 13.2185 12.3705 13.2088 12.2782 13.2215C12.54 13.1698 12.534 13.2005 12.7501 13.2425C12.9797 13.2883 12.9437 13.2876 13.2003 13.4068C13.832 13.7017 14.3391 14.1181 15.0721 14.1368C16.6821 14.1766 17.0963 12.3745 16.8344 11.1186C16.7159 10.5484 16.4608 10.0368 16.2027 9.51908C16.0137 9.13796 15.7211 8.53101 15.6731 8.26918C15.6093 7.92932 15.6153 7.67274 15.655 7.42891C15.6678 7.35763 15.6828 7.28786 15.7023 7.21884C15.655 7.4109 15.7556 7.11905 15.7653 7.09954C15.9401 6.88197 15.6438 7.16107 15.8674 7.02153C15.7076 7.12056 15.8366 7.05603 15.8366 7.05603C16.0812 7.07704 16.2965 7.17007 16.5171 7.26911C17.0558 7.51519 17.5547 7.87155 18.0543 8.18665C18.56 8.50625 19.2787 8.17765 19.5196 7.68549C19.8061 7.10105 19.5188 6.54436 19.0176 6.22026C17.8855 5.48652 16.4398 4.58698 15.0466 5.13616C13.8995 5.58856 13.5386 6.85272 13.5701 7.97808C13.6016 9.1102 14.2281 10.021 14.6595 11.0248C14.745 11.2244 14.8298 11.4457 14.865 11.6595C14.886 11.7938 14.8883 11.9304 14.8891 12.0654C14.8883 11.9694 14.832 12.2635 14.8823 12.1157C14.8275 12.277 14.8298 12.2237 14.9056 12.1629C15.0121 12.0774 15.1389 12.1269 15.0278 12.0834C14.7352 11.9671 14.4652 11.7713 14.1891 11.6228C13.2663 11.1254 11.9886 10.9378 11.0988 11.5988C9.83016 12.5411 10.23 14.2299 10.6494 15.5045C10.8677 16.1692 11.1138 16.8242 11.3479 17.4837C11.5482 18.0509 11.7485 18.7133 11.642 19.3188C11.8326 19.291 11.5302 19.2565 11.5115 19.2512C11.6825 19.297 11.3539 19.1725 11.3539 19.1725C10.9195 18.9699 10.5339 18.6781 10.0995 18.4755C9.41602 18.1574 8.63202 18.0906 7.9508 18.4342C7.11427 18.8551 6.88095 19.8372 6.94847 20.6977C7.07301 22.262 7.97931 24.028 9.12643 25.0799C9.6486 25.5578 10.5864 24.9801 10.3021 24.2944Z" fill="#E5AD65"/>
</svg>
