<svg width="21" height="16" viewBox="0 0 21 16" fill="none" xmlns="http://www.w3.org/2000/svg">
<path d="M1.66535 4.894C1.7959 4.63066 1.82815 4.34407 1.96319 4.08749C2.11249 3.80539 2.35707 3.55631 2.58214 3.33424C2.97227 2.94712 3.49145 2.77531 4.03087 2.78882C5.26652 2.82108 6.1383 4.34707 6.62071 5.29688C8.11294 8.23408 8.73339 11.5914 9.41912 14.7822C9.52265 15.2609 10.0726 15.534 10.525 15.4094C11.0411 15.2684 11.2205 14.789 11.1514 14.3043C10.8603 12.2486 10.3254 10.19 9.70871 8.20783C9.17454 6.49277 8.55408 4.66067 7.51425 3.17894C6.48866 1.71597 4.96642 0.712891 3.13357 1.06175C2.35857 1.2088 1.63759 1.70396 1.11692 2.2794C0.548239 2.91111 -0.0992187 4.07698 0.446208 4.89475C0.720047 5.30288 1.41627 5.39966 1.66535 4.894Z" fill="#E5AD65"/>
<path d="M20.1244 4.89532C20.6526 4.10306 20.0584 3.03546 19.5467 2.394C19.02 1.73154 18.2578 1.26038 17.4363 1.06232C15.6132 0.621177 14.0782 1.79081 13.0556 3.17951C11.9895 4.62823 11.3998 6.51359 10.8619 8.20839C10.2332 10.183 9.70951 12.253 9.41842 14.3049C9.3494 14.7895 9.52945 15.2682 10.0456 15.41C10.4973 15.5345 11.0472 15.2614 11.1507 14.7828C11.8417 11.5747 12.4914 8.26766 13.9499 5.29744C14.412 4.35589 15.2418 2.95068 16.4069 2.79989C16.9389 2.73086 17.4708 2.89817 17.8827 3.23953C18.1257 3.44134 18.3456 3.70093 18.5256 3.95826C18.7267 4.24335 18.7522 4.58697 18.9045 4.89532C19.1551 5.40098 19.8513 5.3042 20.1244 4.89532Z" fill="#E5AD65"/>
</svg>
