<svg width="16" height="18" viewBox="0 0 16 18" fill="none" xmlns="http://www.w3.org/2000/svg">
<path d="M12.6173 3.76615C13.3278 6.32824 14.7195 8.86181 13.8079 11.5792C13.1612 13.5081 11.618 15.4992 9.50752 15.8623C8.40166 16.0529 7.3543 15.5075 6.91166 14.4781C6.47427 13.4616 6.7241 12.2882 7.46159 11.4899C8.21484 10.6729 9.39948 10.91 10.1857 11.5252C10.6411 11.8815 10.9007 12.3782 11.077 12.9184C11.2623 13.4848 11.107 14.025 10.9022 14.5562C10.6629 15.1766 10.23 15.5082 9.80086 15.9891C9.34546 16.4978 9.83238 17.4251 10.5196 17.29C11.84 17.0335 12.435 15.7911 12.8078 14.6177C13.234 13.2785 12.8206 11.7555 11.9271 10.6947C11.0433 9.64656 9.65306 9.00735 8.27487 9.16415C6.9957 9.3097 5.98212 10.2167 5.38642 11.3068C4.75172 12.469 4.76222 13.932 5.25363 15.1369C5.7728 16.4078 6.88542 17.2353 8.19459 17.5496C10.5811 18.1243 12.9519 16.3335 14.2243 14.4849C15.3129 12.9056 15.8321 11.1103 15.757 9.19417C15.676 7.10174 14.88 4.88552 13.8132 3.09994C13.6564 2.8381 13.2707 2.76233 13.0044 2.86886C12.6263 3.02116 12.5175 3.40379 12.6173 3.76615Z" fill="#E5AD65"/>
<path d="M4.07614 14.1693C3.36566 11.6073 1.9732 9.07444 2.88625 6.35556C3.53296 4.42743 5.07623 2.43553 7.18667 2.07316C8.29253 1.8826 9.33836 2.42878 9.7825 3.45812C10.2199 4.4747 9.97005 5.64733 9.23406 6.44558C8.47932 7.2626 7.2962 7.02477 6.50994 6.40957C6.05379 6.05395 5.79419 5.55729 5.61864 5.01712C5.43333 4.44993 5.58863 3.91051 5.79345 3.37933C6.03277 2.75963 6.46568 2.42728 6.89557 1.94638C7.34947 1.43696 6.86405 0.511155 6.17608 0.645449C4.8549 0.902783 4.26071 2.14369 3.88709 3.31707C3.4617 4.65626 3.87583 6.17925 4.76937 7.2401C5.65166 8.28894 7.04261 8.92814 8.42005 8.77059C9.69997 8.62504 10.7136 7.718 11.3093 6.62715C11.9447 5.46577 11.9327 4.00279 11.442 2.79715C10.9236 1.52623 9.81026 0.697967 8.50108 0.383615C6.11381 -0.191072 3.74455 1.60127 2.47138 3.44837C1.38203 5.02913 0.864361 6.82371 0.938635 8.74058C1.02041 10.8323 1.81567 13.0477 2.88252 14.8333C3.03857 15.0959 3.42568 15.1717 3.69202 15.0651C4.06789 14.9143 4.17667 14.531 4.07614 14.1693Z" fill="#E5AD65"/>
</svg>
