<svg width="21" height="16" viewBox="0 0 21 16" fill="none" xmlns="http://www.w3.org/2000/svg">
<path d="M3.04041 13.99C2.72306 13.7574 2.40795 13.5976 2.15962 13.2862C2.11836 13.2352 2.08535 13.1174 2.08085 13.0506C2.08085 12.8998 2.0831 12.8638 2.08535 12.9426C1.98106 13.0581 2.38319 12.8091 2.26615 12.8526C2.43721 12.7888 2.61952 12.7521 2.79808 12.7153C3.26773 12.6208 3.74864 12.5585 4.22204 12.4865C6.69634 12.1083 9.25842 12.4249 11.7485 12.3814C11.666 11.7655 11.5819 11.1495 11.4987 10.5336C11.3043 10.5621 11.1513 10.6859 11.0125 10.8134C10.6344 11.1578 10.6629 11.7917 11.0125 12.1414C11.3974 12.5277 11.9473 12.4685 12.3389 12.1414C12.3517 12.1301 12.3637 12.1211 12.3772 12.1098C12.1551 12.2014 11.9338 12.2937 11.7117 12.3852C12.9346 12.2599 12.9834 10.5336 11.7485 10.4998C10.1505 10.4556 8.5562 10.379 6.95668 10.3633C5.40368 10.3483 3.90018 10.5073 2.36819 10.7504C1.17305 10.9387 0.193982 11.6267 0.115207 12.9089C0.030429 14.2855 1.35011 15.4057 2.64127 15.4612C3.4973 15.5002 3.62335 14.4176 3.04041 13.99Z" fill="#E5AD65"/>
<path d="M5.06913 10.6248C4.18985 10.1964 3.00972 9.92103 2.42378 9.07025C1.83934 8.21797 2.42078 7.42346 3.27455 7.09185C4.60023 6.57793 6.13673 6.71449 7.52618 6.7505C8.93064 6.78651 10.3201 6.86379 11.711 6.61771C12.8132 6.42189 13.898 5.995 14.4569 4.95816C15.0894 3.78328 14.6873 2.37582 13.7082 1.5303C12.7186 0.676522 11.2924 0.482213 10.2473 1.34499C9.45281 2.00221 9.13021 3.16508 9.2555 4.16215C9.39654 5.29427 10.0418 6.28834 11.0216 6.87579C12.1394 7.54725 13.5236 7.37844 14.7675 7.46697C15.7991 7.5405 16.7309 7.8631 17.4812 8.58934C17.8075 8.90519 18.0979 9.30057 18.2742 9.72296C18.4993 10.2639 18.503 10.7553 18.497 11.3322C18.4827 12.6234 20.5122 12.6234 20.4986 11.3322C20.4829 9.86251 20.113 8.66287 19.1827 7.5105C18.3117 6.43315 17.013 5.79469 15.6648 5.57487C14.9934 5.46533 14.3166 5.43382 13.6384 5.41431C13.0697 5.39781 12.3683 5.42707 11.8896 5.0542C11.5152 4.76235 11.2947 4.35797 11.2129 3.89732C11.2451 4.07738 11.2159 3.73602 11.2159 3.73602C11.2159 3.74427 11.2399 3.39541 11.2159 3.56496C11.2549 3.28587 11.2932 3.18384 11.3944 2.99853C11.453 2.89199 11.5092 2.83348 11.606 2.77271C11.8093 2.64592 11.5242 2.7832 11.7636 2.72018C11.6308 2.7547 11.9819 2.72093 11.9699 2.72018C12.3938 2.72769 12.7254 3.13807 12.8987 3.47343C13.3443 4.33096 12.0779 4.78635 11.4965 4.91239C11.0141 5.01893 10.4656 4.94391 9.97648 4.94766C9.15946 4.95442 8.3432 4.92815 7.52618 4.89814C6.0407 4.84412 4.52596 4.81937 3.07799 5.211C1.29316 5.69491 -0.196074 7.3912 0.512156 9.29907C1.14686 11.0081 2.99997 11.8109 4.69852 11.9932C5.42325 12.0705 5.70534 10.9354 5.06913 10.6248Z" fill="#E5AD65"/>
</svg>
