<svg width="25" height="16" viewBox="0 0 25 16" fill="none" xmlns="http://www.w3.org/2000/svg">
<path d="M18.1839 8.82122C18.4052 8.66066 18.7623 8.49861 18.9439 8.29755C19.139 8.08073 19.3205 7.8519 19.4848 7.60882C19.8127 7.12417 19.9815 6.55249 20.0565 5.97705C20.199 4.87119 19.947 3.6483 19.3498 2.70525C18.6895 1.66391 17.5717 0.924158 16.3555 0.724593C15.1109 0.521277 13.9915 0.865645 12.9952 1.60839C11.3972 2.79902 10.8277 5.26507 11.5052 7.08967C12.374 9.42818 15.0201 10.402 17.3009 9.51294C17.718 9.34939 18.0916 9.12433 18.445 8.85274C18.8524 8.53989 19.0602 8.20903 19.2575 7.74013C19.5058 7.14669 18.7188 6.62976 18.2206 6.9141C17.8193 7.14368 17.4621 7.43252 17.0563 7.65459C16.6714 7.86316 16.228 7.92319 15.7981 7.93445C14.9631 7.95845 14.2661 7.6711 13.783 7.15719C13.4146 6.76331 13.2188 6.11135 13.2105 5.50591C13.2008 4.79843 13.4018 4.21472 13.798 3.62503C14.1273 3.13662 14.6885 2.79451 15.3847 2.66397C16.1665 2.51767 16.988 2.82453 17.5544 3.3602C18.1659 3.93864 18.3654 4.78117 18.3542 5.59893C18.3504 5.91704 18.2769 6.24263 18.1494 6.53523C18.0653 6.72804 17.9513 6.90659 17.8343 7.0814C17.6812 7.30947 17.5747 7.53606 17.3886 7.73938C16.9017 8.27055 17.5327 9.29237 18.1839 8.82122Z" fill="#E5AD65"/>
<path d="M17.0618 9.53918C18.1122 9.40414 19.1009 8.97201 20.1512 8.81221C20.3831 8.77695 20.7297 8.7552 21.095 8.7642C21.1715 8.7657 21.6284 8.81596 21.3839 8.7792C21.5399 8.80171 21.6937 8.84071 21.8452 8.88797C21.9053 8.90598 21.963 8.92925 22.0208 8.951C22.1018 9.00052 22.1934 9.06202 22.2826 9.12729C22.0066 8.92323 22.2766 9.13932 22.3404 9.21059C22.3914 9.2676 22.4897 9.42214 22.3059 9.15731C22.3434 9.21058 22.3742 9.26759 22.4049 9.32536C22.5152 9.53542 22.3502 9.11004 22.4372 9.40863C22.4604 9.49115 22.5025 9.83851 22.4709 9.50616C22.4807 9.61044 22.4792 9.71623 22.4747 9.82051C22.4717 9.87378 22.4657 9.92854 22.459 9.98256C22.4222 10.1236 22.3877 10.2354 22.3502 10.3457C22.3314 10.4027 22.3089 10.459 22.2864 10.5167C22.1619 10.7703 22.0051 11.0149 21.8348 11.2467C21.7792 11.3165 21.7297 11.3697 21.6825 11.4237C21.5842 11.534 21.4792 11.6398 21.3719 11.7433C21.2601 11.8491 21.143 11.9489 21.0245 12.0472C20.9637 12.0974 20.9015 12.1447 20.8385 12.1935C21.0515 12.0292 20.7634 12.24 20.7229 12.2685C19.4438 13.1237 18.1046 13.3961 16.5389 13.2933C15.1953 13.2055 13.7684 12.7329 12.6153 11.8844C11.1838 10.8303 10.1988 9.27286 9.3593 7.7394C8.3555 5.90435 7.44772 3.69193 5.5639 2.5891C4.74541 2.11196 3.84214 1.95741 2.91186 2.06469C1.74376 2.19823 1.02806 3.2673 0.490899 4.19008C-0.198556 5.37168 1.69201 6.47528 2.31169 5.26591C2.56827 4.76252 2.79409 4.18408 3.40177 4.0738C3.85715 3.99052 4.38682 4.27785 4.75443 4.50967C5.91727 5.24339 6.55871 6.89088 7.20765 8.06648C8.5303 10.4657 10.0307 12.8424 12.4967 14.2131C15.6574 15.9701 20.0807 15.6865 22.7478 13.1658C24.1552 11.8364 25.0967 9.64346 23.8123 7.9262C23.1919 7.0972 22.0178 6.83538 21.047 6.81437C19.4595 6.78061 17.599 7.26374 16.3266 8.20602C16.0505 8.41083 16.0318 8.87372 16.1833 9.15056C16.3664 9.48816 16.7055 9.58569 17.0618 9.53918Z" fill="#E5AD65"/>
</svg>
