<svg width="23" height="12" viewBox="0 0 23 12" fill="none" xmlns="http://www.w3.org/2000/svg">
<path d="M21.5767 4.27046C21.8693 4.36949 21.3276 4.2007 21.2173 4.18494C20.9517 4.14443 20.6921 4.12116 20.4243 4.10916C19.7858 4.0799 19.1504 4.0679 18.5119 4.06115C17.878 4.05365 15.8335 4.00862 15.7638 4.00487C15.4742 3.98987 16.0144 4.08515 16.0706 4.11216C15.6272 3.90359 15.1066 3.98461 14.8425 4.434C14.6114 4.82713 14.7209 5.45433 15.1636 5.6629C15.5282 5.83396 15.9318 5.80096 16.3257 5.79721C16.9567 5.79271 17.5876 5.77845 18.2186 5.76419C18.902 5.74994 19.5833 5.73569 20.266 5.69443C20.5676 5.67567 20.8647 5.65765 21.1633 5.60814C21.2428 5.59388 21.3238 5.58113 21.4034 5.56688C21.4994 5.55037 21.8483 5.40632 21.5759 5.5046C22.1761 5.28778 22.1941 4.47978 21.5767 4.27046Z" fill="#E5AD65"/>
<path d="M14.7331 4.68779C14.652 5.21071 14.8066 5.73737 14.7143 6.26779C14.6115 6.85373 14.3422 7.3729 14.0128 7.8613C13.3579 8.83437 12.2918 9.46685 11.1222 9.56213C10.612 9.60339 10.1836 9.95676 10.1836 10.4999C10.1836 10.9816 10.6112 11.476 11.1222 11.4385C12.9858 11.2997 14.445 10.4054 15.5306 8.91542C15.9912 8.28296 16.3243 7.52071 16.4766 6.75471C16.6289 5.98946 16.6477 4.92637 16.046 4.34193C15.6619 3.9668 14.8276 4.07934 14.7331 4.68779Z" fill="#E5AD65"/>
<path d="M0.666105 5.50539C0.376511 5.40111 0.915928 5.58117 1.02546 5.59917C1.31581 5.64869 1.60391 5.6712 1.8965 5.68996C2.57322 5.73197 3.24843 5.74849 3.9259 5.7635C4.56661 5.7785 5.20807 5.79125 5.84878 5.798C6.26066 5.8025 6.69731 5.84375 7.07843 5.66369C7.52108 5.45588 7.63061 4.82867 7.40103 4.43479C7.13695 3.9854 6.61478 3.90438 6.17214 4.11295C6.19014 4.10395 6.74832 3.98766 6.5105 4.00342C6.44598 4.00792 6.38146 4.01017 6.31694 4.01317C6.11362 4.02142 2.54096 4.07619 1.89575 4.1062C1.61966 4.1197 1.35182 4.1347 1.07799 4.17672C0.99846 4.18947 0.918184 4.20148 0.838658 4.21273C0.744877 4.22849 0.390005 4.36428 0.664594 4.27125C0.0478936 4.48132 0.0659101 5.28932 0.666105 5.50539Z" fill="#E5AD65"/>
<path d="M6.19619 4.34193C5.57949 4.94287 5.63952 5.97596 5.76556 6.75471C5.89085 7.52521 6.27122 8.27846 6.71162 8.91542C7.75296 10.4204 9.2917 11.3027 11.12 11.4385C11.631 11.476 12.0586 10.9823 12.0586 10.4999C12.0586 9.95676 11.6302 9.60339 11.12 9.56213C9.92641 9.46385 8.91508 8.82687 8.22936 7.8613C7.91275 7.41416 7.68993 6.93401 7.55864 6.40358C7.41534 5.82965 7.59765 5.25647 7.50987 4.68779C7.41459 4.07934 6.57957 3.9668 6.19619 4.34193Z" fill="#E5AD65"/>
<path d="M21.6364 0.708345C20.7054 0.431512 19.6438 0.531298 18.682 0.541051C17.1163 0.556806 2.27689 0.806631 1.35787 0.809632C0.0659821 0.814133 0.0652318 2.81721 1.35787 2.81196C3.36621 2.80446 5.37756 2.69044 7.38516 2.62292C10.7859 2.50888 19.1824 2.23804 19.9777 2.19753C20.5403 2.17052 21.0917 2.15777 21.6356 1.99498C22.2726 1.80667 22.2741 0.898151 21.6364 0.708345Z" fill="#E5AD65"/>
</svg>
