<svg width="20" height="24" viewBox="0 0 20 24" fill="none" xmlns="http://www.w3.org/2000/svg">
<path d="M0.795423 6.21799C1.30709 6.81218 1.90728 7.35236 2.45271 7.91804C3.0319 8.52049 3.63284 9.09817 4.18877 9.72538C5.28713 10.9648 6.22644 12.376 7.09522 13.7827C7.97 15.1984 8.75401 16.6734 9.31969 18.2384C9.59203 18.9939 9.80585 19.7636 9.98891 20.5446C10.0767 20.9175 10.1472 21.2956 10.2035 21.676C10.2747 22.1427 10.2815 22.5801 10.5643 22.9837C11.0047 23.6124 11.8247 23.6221 12.2599 22.9799C12.7821 22.2087 12.482 21.1231 12.3162 20.2776C12.1519 19.444 11.9275 18.6225 11.6394 17.8228C11.004 16.0612 10.1315 14.3986 9.12537 12.8216C8.1373 11.2724 7.01945 9.73438 5.68851 8.46197C5.0403 7.84227 4.34407 7.26758 3.64034 6.71165C2.93886 6.15947 2.21338 5.50901 1.32509 5.29369C0.762408 5.15789 0.444309 5.80911 0.795423 6.21799Z" fill="#E5AD65"/>
<path d="M8.32606 1.25307C8.08448 2.07608 8.26904 2.92011 8.36957 3.74988C8.47911 4.65167 8.64716 5.55122 8.84673 6.43875C9.25261 8.24309 10.0419 9.9574 10.8619 11.6087C11.6954 13.2855 12.724 14.8572 13.9026 16.309C14.4443 16.9759 15.049 17.5769 15.6844 18.1546C16.3477 18.757 17.2097 19.6355 18.1745 19.5658C18.9488 19.5102 19.3494 18.796 19.026 18.0998C18.7072 17.4171 17.8707 16.9894 17.3222 16.492C16.7325 15.9593 16.1834 15.3847 15.6589 14.7875C14.5628 13.5368 13.6723 12.1136 12.88 10.6551C12.087 9.1989 11.3443 7.68641 10.7906 6.12215C10.5115 5.33064 10.2902 4.52113 10.0801 3.71087C9.86856 2.8991 9.66749 2.04682 9.39065 1.25682C9.21209 0.747401 8.48886 0.697887 8.32606 1.25307Z" fill="#E5AD65"/>
<path d="M4.16992 15.5253C4.16992 15.9897 4.7176 16.3573 5.15724 16.3618C5.55112 16.3648 6.01101 16.148 6.32612 15.9289C6.70949 15.6618 7.15889 15.4277 7.54076 15.1561C8.34127 14.5889 9.24457 14.1133 10.1006 13.6361C10.9904 13.1387 11.9132 12.6856 12.8202 12.2204C13.2794 11.9849 13.746 11.753 14.2097 11.5242C14.4108 11.4229 14.6223 11.3321 14.8271 11.2384C14.8609 11.2226 15.2915 11.056 15.1145 11.1018C16.4859 10.7424 15.9285 8.61175 14.5615 8.97637C14.1684 9.08066 13.8 9.30573 13.4324 9.47828C12.977 9.6906 12.5306 9.92168 12.0827 10.1505C11.1172 10.6449 10.1591 11.1543 9.22056 11.6983C8.36453 12.1942 7.52276 12.7126 6.70049 13.2618C6.28111 13.5409 5.90223 13.8785 5.51735 14.2018C5.18875 14.4749 4.85264 14.7698 4.63807 15.1486C5.00794 15.0466 5.37706 14.9468 5.74618 14.8463C5.73943 14.8425 5.54661 14.8358 5.54661 14.8358C5.02294 14.5379 4.16992 14.9228 4.16992 15.5253Z" fill="#E5AD65"/>
</svg>
