<svg width="24" height="11" viewBox="0 0 24 11" fill="none" xmlns="http://www.w3.org/2000/svg">
<path d="M22.9816 7.86284C22.4362 7.73381 21.905 7.48997 21.3716 7.32117C20.1855 6.94681 19.0054 6.55446 17.811 6.2041C14.6991 5.29258 2.30167 1.57222 2.26341 1.55946C2.15463 1.5197 2.86959 1.78828 2.19739 1.53396C1.67524 1.33665 1.07881 1.75902 0.944516 2.25716C0.78997 2.83559 1.14708 3.31198 1.66773 3.50929C2.15013 3.6916 2.67153 3.80788 3.16593 3.95492C4.33178 4.30002 18.9979 8.52304 20.5126 8.9004C21.2501 9.08421 22.0168 9.30703 22.7798 9.35805C23.6493 9.41507 23.8151 8.0594 22.9816 7.86284Z" fill="#E5AD65"/>
<path d="M5.97162 6.07997C5.82682 5.76562 5.58599 5.52705 5.35942 5.26896C4.91377 4.76555 4.42161 4.30266 3.94446 3.82775C3.25423 3.13828 2.56326 2.44955 1.86329 1.77058C1.72374 2.29275 1.58419 2.81491 1.4439 3.33708C3.26774 2.86668 5.08933 2.39402 6.91392 1.92662C8.0723 1.62877 7.6019 -0.162801 6.44727 0.133546C4.62343 0.601698 2.79884 1.06534 0.974243 1.53274C0.28852 1.70755 0.0469438 2.60334 0.554108 3.09775C1.25409 3.77822 1.96081 4.4497 2.6698 5.12042C3.14095 5.56531 3.59935 6.03196 4.09676 6.44834C4.37435 6.68092 4.63768 6.93976 4.97229 7.08305C5.65426 7.3734 6.28822 6.7702 5.97162 6.07997Z" fill="#E5AD65"/>
<path d="M15.2768 10.0117C15.5304 9.60052 15.6587 9.12037 15.832 8.66947C16.0698 8.04827 16.2866 7.42105 16.5064 6.79235C16.7143 6.19816 17.2792 4.57389 17.3557 4.35857C17.424 4.16575 17.5433 3.9917 17.3715 4.2978C18.0377 3.10867 16.1808 2.04782 15.5356 3.24971C15.3623 3.57456 15.2685 3.96468 15.1567 4.31204C14.9587 4.92799 14.7854 5.5492 14.6143 6.17266C14.429 6.84863 14.2475 7.52159 14.1169 8.20956C14.0149 8.74749 13.8753 9.29592 13.9811 9.83985C14.1064 10.4783 14.9722 10.5068 15.2768 10.0117Z" fill="#E5AD65"/>
</svg>
