<svg width="17" height="25" viewBox="0 0 17 25" fill="none" xmlns="http://www.w3.org/2000/svg">
<path d="M11.1128 18.3585C10.3985 18.4935 9.6873 18.8701 9.00908 19.1365C8.57994 19.3053 8.1673 19.4966 7.72466 19.6301C7.5371 19.6871 7.08845 19.8619 6.94515 19.6684C6.41023 18.9542 6.87088 18.0269 7.20924 17.3456C7.45082 16.8587 7.64288 16.3463 7.88296 15.8602C8.13729 15.3462 8.4539 14.8661 8.75324 14.3777C9.35119 13.4053 9.88461 12.3865 10.4428 11.3917C10.956 10.4757 11.5081 9.57612 11.9943 8.64657C12.1811 8.28796 12.1466 7.85507 11.8548 7.56022C11.5434 7.24437 10.8802 7.16184 10.5763 7.55047C9.79833 8.54829 9.24615 9.75618 8.62945 10.8575C8.3421 11.3722 8.05476 11.8869 7.76592 12.4C7.25425 13.3078 6.66456 14.1766 6.20316 15.1114C5.93833 15.6448 5.71926 16.2045 5.45818 16.7417C5.18284 17.3074 4.93975 17.9008 4.88123 18.531C4.78595 19.5844 5.17082 20.8455 6.1814 21.3354C7.22724 21.8434 8.45014 21.2387 9.39244 20.7638C10.1779 20.3699 11.3813 20.1013 11.7925 19.2453C12.0281 18.7576 11.6469 18.2587 11.1128 18.3585Z" fill="#E5AD65"/>
<path d="M5.95096 16.3623C5.03266 16.7367 4.33494 17.472 3.26434 17.1846C2.93724 17.0976 2.69716 16.8177 2.56061 16.5874C2.40231 16.3226 2.37455 16.045 2.37305 15.7119C2.3693 15.0487 2.65139 14.2324 2.90272 13.6592C3.34911 12.6419 3.94256 11.6853 4.48573 10.719C5.14595 9.54488 5.80017 8.36776 6.44462 7.18537C6.9833 6.19805 7.47471 5.0967 7.40944 3.94582C7.33666 2.66816 6.42136 1.79261 5.23448 1.46025C4.05734 1.13015 2.92298 1.56604 1.97092 2.24576C1.09464 2.87221 1.84788 4.29092 2.81495 3.72674C3.48717 3.33511 4.53076 2.91872 5.24199 3.48065C5.94947 4.04259 5.30276 5.29626 4.99291 5.91146C3.84803 8.1847 2.38206 10.3049 1.31596 12.6171C0.60623 14.1566 0.00527811 16.162 1.03686 17.7038C1.67907 18.6663 2.78269 19.2065 3.93731 19.1375C5.1332 19.0655 6.3861 18.3655 6.77698 17.1846C6.92553 16.7367 6.41611 16.1725 5.95096 16.3623Z" fill="#E5AD65"/>
<path d="M4.44327 3.99815C4.2437 3.42271 3.67802 3.3567 3.1611 3.18789C2.91127 3.10537 2.44312 3.11886 2.30133 2.9313C2.36285 3.04009 2.42512 3.14887 2.48739 3.25766C2.48289 3.30867 2.47912 3.3597 2.47462 3.41071C2.50763 3.34694 2.5444 3.28466 2.58267 3.22464C2.6847 3.05809 2.77172 2.88403 2.86475 2.71297C3.05907 2.35435 3.29539 2.02575 3.50996 1.68139C3.97286 0.939395 2.93678 0.201154 2.32683 0.766087C1.86843 1.19073 1.58859 1.76842 1.33501 2.32885C1.09268 2.86452 0.791084 3.44146 1.25173 3.96513C1.55108 4.30424 2.01698 4.41979 2.44537 4.50082C2.93003 4.5916 3.39517 4.73639 3.89108 4.72364C4.2407 4.71464 4.56856 4.35826 4.44327 3.99815Z" fill="#E5AD65"/>
<path d="M12.2936 22.4707C11.9417 22.6485 11.6311 22.842 11.268 22.9426C11.1247 22.9823 10.9387 23.0033 10.8494 22.9883C10.5868 22.9471 10.469 22.7062 10.6491 23.0116C10.6813 23.0671 10.7481 23.5157 10.7511 23.3237C10.7946 23.1466 10.8666 22.95 10.9394 22.7557C10.9829 22.6424 11.1262 22.2853 11.154 22.2186C11.2898 21.9027 11.4338 21.5891 11.5801 21.2778C11.9117 20.5703 12.2666 19.8733 12.6267 19.1793C13.8774 16.7733 15.1873 14.5053 16.51 12.1383C16.534 12.094 16.537 12.0865 16.537 12.0865C17.1777 10.9784 15.5519 10.0399 14.9112 11.148C13.6305 13.3619 12.3896 15.4161 11.187 17.6398C10.4863 18.937 9.80955 20.2079 9.24312 21.5704C9.0533 22.025 8.859 22.4819 8.79598 22.9756C8.67819 23.8931 9.12308 24.4543 10.0114 24.7784C11.238 25.227 12.6432 24.5736 13.3657 23.554C13.8504 22.8713 12.9381 22.1436 12.2936 22.4707Z" fill="#E5AD65"/>
</svg>
