<svg width="20" height="20" viewBox="0 0 20 20" fill="none" xmlns="http://www.w3.org/2000/svg">
<path d="M19.5236 9.47472C19.3766 8.69672 18.4665 8.18355 17.7575 8.023C16.9128 7.83094 16.029 8.02075 15.209 8.23532C14.3957 8.44764 13.6432 8.67121 12.7947 8.65846C11.9829 8.64645 11.1614 8.56092 10.3826 8.3321C9.82596 7.80017 9.40133 7.18422 8.97744 6.53901C8.48153 5.78577 8.28196 4.96276 8.05464 4.10373C7.84682 3.32047 7.57448 2.52521 7.04931 1.8935C6.5609 1.30531 5.61634 0.709626 4.82333 0.987216C4.31467 1.16502 4.22466 1.79298 4.67705 2.09532C4.93439 2.26713 5.24949 2.29189 5.49482 2.4877C5.77766 2.71353 5.96446 2.9596 6.13102 3.27846C6.49863 3.98068 6.58717 4.84046 6.78148 5.60046C6.95704 6.28843 7.26013 6.91114 7.64801 7.49633C6.94578 7.35378 6.23455 7.35003 5.51732 7.45281C3.82852 7.69439 2.37379 9.00132 1.55453 10.441C0.784025 11.7952 0.567964 13.46 1.03837 14.9515C1.32421 15.8533 1.88163 16.6305 2.52834 17.3103C3.02801 17.8339 5.70938 19.3877 6.38085 19.5813C7.3014 19.8483 8.25647 19.9076 9.19802 19.7568C10.793 19.501 12.1435 18.3719 12.9702 17.0319C13.83 15.6387 14.1369 13.8044 13.6245 12.2379C13.3851 11.5034 12.9717 10.8409 12.4593 10.2662C13.1668 10.3 13.8383 10.2715 14.548 10.0847C15.2765 9.89186 15.9915 9.585 16.744 9.49873C17.0973 9.45746 17.4259 9.48597 17.7628 9.59326C18.1132 9.70504 18.3172 9.99689 18.6353 10.1544C19.1245 10.3968 19.6234 10.0044 19.5236 9.47472ZM11.4067 15.9868C10.8613 16.9704 9.94601 17.6771 8.83565 17.921C8.18369 18.065 7.48746 17.9352 6.85275 17.7657C6.29982 17.6186 4.48049 16.5713 4.09186 16.2157C3.6027 15.767 3.1323 15.2126 2.89222 14.5854C2.48484 13.517 2.65214 12.3572 3.17881 11.3811C3.7655 10.2917 4.78957 9.52123 5.98471 9.20313C6.61192 9.03583 7.27138 9.08384 7.89934 9.21663C8.39825 9.32167 8.89717 9.51298 9.40509 9.60826C9.41784 9.61877 9.42909 9.62777 9.44259 9.63678C9.48611 9.66828 9.53486 9.69229 9.58663 9.7103C9.62789 9.74556 9.67366 9.77782 9.72318 9.79957C9.73743 9.80558 9.75094 9.81158 9.76595 9.81683C10.0713 10.1732 10.4427 10.486 10.7608 10.8192C11.2109 11.2888 11.574 11.8222 11.7856 12.4404C12.1892 13.6168 12.0002 14.92 11.4067 15.9868Z" fill="#E5AD65"/>
</svg>
