<svg width="25" height="17" viewBox="0 0 25 17" fill="none" xmlns="http://www.w3.org/2000/svg">
<path d="M18.9725 9.08952C19.0812 9.76098 19.0715 10.4812 18.8059 11.1197C18.5208 11.8031 18.0452 11.7214 17.4622 11.4205C16.3331 10.8398 15.4501 9.69946 14.8259 8.7714C13.708 7.10661 12.6036 5.3563 11.7221 3.55271C11.4895 3.07856 10.8331 2.94876 10.4002 3.19934C9.91927 3.47618 9.81424 4.04713 10.0453 4.51978C10.5465 5.54461 11.1572 6.52594 11.7454 7.502C12.4071 8.60411 13.0763 9.70322 13.8873 10.7033C15.0524 12.1408 16.754 13.786 18.7669 13.4514C19.872 13.2684 20.3739 12.17 20.6463 11.2232C20.9291 10.2434 20.7393 9.21931 20.0581 8.46231C19.5892 7.94239 18.8787 8.50958 18.9725 9.08952Z" fill="#E5AD65"/>
<path d="M14.4528 11.2324C14.5908 12.0599 14.6239 13.0232 14.266 13.8042C14.1302 14.0998 13.9344 14.4547 13.578 14.4524C13.2337 14.4509 12.845 14.0488 12.6184 13.8357C11.881 13.1448 11.334 12.231 10.7841 11.393C10.1877 10.4852 9.63699 9.55035 9.06081 8.62905C8.44261 7.64098 7.41476 6.85697 6.40494 6.30705C4.92471 5.50203 3.22164 5.2417 1.57861 5.63108C0.309947 5.93192 0.823871 7.8833 2.08728 7.58396C3.61028 7.22384 4.96896 7.689 6.19936 8.55253C6.29914 8.62606 6.37192 8.68607 6.4432 8.74534C6.55648 8.83912 6.66526 8.9359 6.77179 9.03643C6.95185 9.20749 7.12068 9.38755 7.27898 9.57961C7.06816 9.32302 7.26922 9.57436 7.31348 9.63889C7.43277 9.82044 7.53706 10.0148 7.64735 10.2016C7.99846 10.7875 8.36907 11.3629 8.74194 11.9346C9.3789 12.9092 10.0241 13.889 10.7728 14.7825C11.5006 15.6506 12.5262 16.4383 13.7048 16.4391C15.0215 16.4413 15.8783 15.2379 16.2504 14.1133C16.6052 13.0465 16.4027 11.8454 15.9893 10.8325C15.6097 9.89247 14.281 10.2023 14.4528 11.2324Z" fill="#E5AD65"/>
<path d="M8.04755 10.2686C7.84273 10.5837 7.93277 10.8793 7.91327 11.2251C7.91252 11.2409 7.83974 11.4322 7.81873 11.4975C7.86825 11.3467 7.63866 11.7173 7.7617 11.5702C7.73244 11.6055 7.46761 11.8231 7.61766 11.7166C7.52313 11.7826 7.41735 11.8358 7.31457 11.8854C7.51113 11.7908 7.21929 11.9041 7.17202 11.9154C6.99947 11.9566 7.34156 11.9229 7.08873 11.9139C7.05047 11.8824 6.9852 11.8441 6.92067 11.8051C6.78938 11.7218 7.07674 11.9424 6.87117 11.7653C6.8014 11.7053 6.73987 11.6393 6.6791 11.5732C6.49229 11.3707 6.70687 11.6265 6.60558 11.481C6.47504 11.2934 6.37226 11.0871 6.27923 10.8785C6.36101 11.0638 6.24171 10.76 6.23871 10.7517C6.19294 10.6167 6.15768 10.4794 6.12242 10.3413C6.0519 10.0645 6.00764 9.78542 5.98138 9.50108C5.90711 8.67506 5.95813 7.82804 6.07892 7.00878C6.29499 5.52029 7.12325 4.19686 7.62442 2.79765C7.81498 2.26948 7.40534 1.67304 6.89668 1.5365C6.32799 1.38495 5.81708 1.73532 5.63628 2.26499C5.34893 3.10601 4.96405 3.91326 4.64295 4.74078C4.27233 5.69059 4.10652 6.63665 4.02474 7.65173C3.89495 9.237 4.02625 11.0819 4.95055 12.436C5.57475 13.3513 6.57933 14.0063 7.71595 13.7167C8.41593 13.5382 9.01312 13.0602 9.39649 12.457C9.62457 12.0977 9.71233 11.6535 9.67932 11.2334C9.63206 10.6392 9.45577 10.159 8.87358 9.92121C8.56148 9.79667 8.2111 10.0165 8.04755 10.2686Z" fill="#E5AD65"/>
<path d="M22.6042 8.79328C22.5606 9.41748 22.6319 10.302 22.046 10.5113C22.2808 10.4273 22.4308 10.4971 22.6034 10.5766C22.4676 10.4888 22.3348 10.3463 22.2065 10.2053C22.031 10.0124 21.8577 9.81586 21.6919 9.6148C21.5951 9.49776 21.499 9.37773 21.4038 9.25694C21.379 9.22468 21.2109 9.00787 21.3685 9.21344C21.3167 9.14667 21.2642 9.07837 21.2132 9.0101C20.7571 8.40541 20.3189 7.78646 19.8868 7.16151C18.4778 5.12385 17.1161 3.03892 15.8317 0.920233C15.3403 1.29986 14.8481 1.68022 14.3567 2.06059C14.4775 2.2159 14.6621 2.28418 14.8421 2.34345C15.3298 2.4995 15.8647 2.15362 15.9923 1.67872C16.1341 1.15355 15.8099 0.704916 15.3283 0.529359C15.3118 0.524107 15.2975 0.518103 15.2818 0.512851C15.4723 0.658398 15.6629 0.804701 15.8535 0.950249C15.1332 -0.0415733 13.6027 0.77844 14.2029 1.86179C15.4648 4.14178 16.9166 6.33998 18.387 8.48943C19.1605 9.62005 19.9438 10.8497 20.9409 11.798C21.2845 12.1251 21.7489 12.4972 22.2553 12.4687C23.5375 12.399 24.2817 11.0808 24.3717 9.94266C24.4145 9.40699 24.3072 8.88482 24.0776 8.40316C23.7145 7.64166 22.6544 8.07305 22.6042 8.79328Z" fill="#E5AD65"/>
</svg>
